PathFileType	4	(X/Y/Z)	C:/Users/dbak576/Desktop/Duncan Bakke Modelling Files/H30s1/Static_H30s1.trc	
DataRate	CameraRate	NumFrames	NumMarkers	Units	OrigDataRate	OrigDataStartFrame	OrigNumFrames	
200.00	200.00	6	63	mm	200.00	1459	360	
Frame#	Time	LFHD			RFHD			LBHD			RBHD			C7			T10			CLAV			RBack			LASI			RASI			LPSI			RPSI			RACR1			RUA1			RElbow			RElbowM			RFA1			RWRR			RWRU			RCAR			LACR1			LUA1			LElbow			LElbowM			LFA1			LWRR			LWRU			LCAR			RTH1			RTH3			RTH2			RTH4			RLFC			RMFC			RTB1			RTB3			RTB2			RTB4			RLMAL			RMMAL			RMT1			RMT5			RToe			LTH1			LTH3			LTH2			LTH4			LLFC			LMFC			LTB1			LTB3			LTB2			LTB4			LLMAL			LMMAL			LCAL			LMT1			LMT5			LToe			RCAL			STRN			*61			*62			
		X1	Y1	Z1	X2	Y2	Z2	X3	Y3	Z3	X4	Y4	Z4	X5	Y5	Z5	X6	Y6	Z6	X7	Y7	Z7	X8	Y8	Z8	X9	Y9	Z9	X10	Y10	Z10	X11	Y11	Z11	X12	Y12	Z12	X13	Y13	Z13	X14	Y14	Z14	X15	Y15	Z15	X16	Y16	Z16	X17	Y17	Z17	X18	Y18	Z18	X19	Y19	Z19	X20	Y20	Z20	X21	Y21	Z21	X22	Y22	Z22	X23	Y23	Z23	X24	Y24	Z24	X25	Y25	Z25	X26	Y26	Z26	X27	Y27	Z27	X28	Y28	Z28	X29	Y29	Z29	X30	Y30	Z30	X31	Y31	Z31	X32	Y32	Z32	X33	Y33	Z33	X34	Y34	Z34	X35	Y35	Z35	X36	Y36	Z36	X37	Y37	Z37	X38	Y38	Z38	X39	Y39	Z39	X40	Y40	Z40	X41	Y41	Z41	X42	Y42	Z42	X43	Y43	Z43	X44	Y44	Z44	X45	Y45	Z45	X46	Y46	Z46	X47	Y47	Z47	X48	Y48	Z48	X49	Y49	Z49	X50	Y50	Z50	X51	Y51	Z51	X52	Y52	Z52	X53	Y53	Z53	X54	Y54	Z54	X55	Y55	Z55	X56	Y56	Z56	X57	Y57	Z57	X58	Y58	Z58	X59	Y59	Z59	X60	Y60	Z60	X61	Y61	Z61	X62	Y62	Z62	X63	Y63	Z63	

181	0.900	-41.58245	-341.14471	1589.07678	58.05386	-334.23935	1592.96021	-53.93987	-494.84500	1554.17639	89.30494	-483.22955	1564.63757	15.95307	-517.53149	1425.26709	18.73676	-546.80096	1197.40540	17.84658	-392.04504	1343.26941	86.59403	-570.35559	1281.16394	-96.66199	-343.10193	919.98224	155.73624	-351.41541	939.00305	-25.22629	-523.95306	965.15100	74.16862	-524.66913	964.91199	162.23537	-491.54971	1384.70703	299.22849	-476.56686	1327.73047	452.69476	-429.41248	1302.41821	422.36993	-371.93710	1272.46497	579.10608	-404.00500	1341.42664	674.26239	-346.85663	1400.83826	691.26166	-336.98059	1334.66943	754.13477	-327.20346	1386.69153	-117.30610	-483.45023	1395.29504	-260.41183	-488.93051	1333.45813	-405.75549	-451.23401	1295.96326	-391.72925	-398.58755	1260.45483	-536.32001	-404.65369	1337.83582	-621.19165	-343.76288	1400.20361	-633.31604	-317.43057	1339.14600	-698.30255	-323.11307	1390.53540	241.90372	-410.96045	775.97803	224.27632	-422.21768	604.82416	211.29152	-362.16098	689.93243	232.38873	-417.47638	687.88867	213.20906	-432.49805	457.17484	89.77670	-468.39343	435.24753	196.84810	-415.56448	348.41080	202.04535	-431.04260	176.22348	241.21870	-468.85223	267.89331	200.88475	-422.46808	261.96152	225.54459	-487.12589	68.65417	145.10475	-470.65552	80.35839	156.61243	-347.62473	34.50401	245.11125	-380.04901	24.55185	184.64925	-289.65717	25.97891	-175.13066	-408.28217	761.10046	-161.96373	-430.54300	590.92065	-148.99680	-364.51053	669.68018	-171.05975	-419.81998	675.41058	-156.78011	-451.92523	452.00589	-27.19016	-473.29410	428.69080	-107.17054	-414.28720	346.86426	-118.25839	-429.90042	177.07024	-171.75446	-443.22476	266.97067	-113.30093	-425.72504	261.23349	-171.09497	-485.16617	69.56023	-91.12857	-468.32922	79.20939	-130.69373	-535.88611	33.39235	-110.98742	-342.56708	29.87816	-193.14836	-376.27100	24.91635	-140.01257	-283.56589	25.10130	186.51891	-535.45123	38.88895	19.09089	-341.52502	1221.32739						 
182	0.905	-41.59176	-341.14151	1589.07727	58.06186	-334.23938	1592.99890	-53.90762	-494.82187	1554.17712	89.86156	-483.27081	1564.75281	15.94908	-517.53278	1425.27820	18.76066	-546.77509	1197.40430	17.86046	-392.03946	1343.25122	86.59655	-570.35498	1281.16541	-96.67342	-343.10196	919.98004	155.70490	-351.42380	938.99878	-25.25210	-523.98724	965.12396	74.16492	-524.70410	964.91541	162.51498	-491.36545	1384.79028	299.25565	-476.59091	1327.72095	452.76248	-429.41711	1302.39880	422.38953	-371.97110	1272.46326	579.10211	-404.01822	1341.43396	674.27856	-346.85834	1400.80554	691.26422	-336.98151	1334.67212	754.14709	-327.24362	1386.71021	-117.24318	-483.39587	1395.30603	-260.18256	-488.82513	1333.30859	-405.84033	-451.22385	1296.08630	-391.67953	-398.58893	1260.46753	-536.27521	-404.65692	1337.80933	-621.17554	-343.75433	1400.17822	-633.31842	-317.46445	1339.11230	-698.47510	-323.35062	1390.58777	241.93089	-410.99573	775.95056	224.23257	-422.23257	604.81616	211.30710	-362.18765	689.93774	232.37286	-417.49030	687.86786	213.17758	-432.51172	457.18506	89.79672	-468.37244	435.22101	196.84802	-415.54367	348.39719	202.05536	-431.02246	176.22516	241.23100	-468.83533	267.92752	200.79839	-422.45309	261.93729	225.54417	-487.09610	68.65344	145.10768	-470.60605	80.35019	156.63121	-347.61340	34.49877	245.09836	-380.03293	24.57873	184.63075	-289.64563	26.03477	-175.13014	-408.28046	761.09961	-161.98126	-430.58203	590.92847	-148.99803	-364.50818	669.68176	-171.02809	-419.83441	675.38757	-156.72868	-451.92670	451.99466	-27.19677	-473.25735	428.70062	-107.19570	-414.28699	346.82382	-118.24821	-429.93735	177.05479	-171.79172	-443.23050	266.96747	-113.32494	-425.66791	261.10223	-171.06165	-485.17468	69.60529	-91.07910	-468.34866	79.17879	-130.67363	-535.90338	33.44299	-110.96279	-342.50110	30.00364	-193.13950	-376.25345	24.93023	-139.99457	-283.57141	25.04894	186.50737	-535.45319	38.91068	19.14364	-341.59869	1221.37183						 
183	0.910	-41.57067	-341.18173	1589.07581	58.11203	-334.23111	1592.99780	-53.93416	-494.84012	1554.18799	89.51144	-483.22742	1564.69006	15.95074	-517.53149	1425.26794	18.74424	-546.77661	1197.37537	17.84388	-392.09814	1343.26624	86.57352	-570.36163	1281.14185	-96.67201	-343.13751	919.98431	155.70430	-351.42551	938.99762	-25.27600	-524.02893	965.13489	74.18865	-524.69739	964.91217	162.17734	-491.53217	1384.51953	299.24503	-476.56427	1327.70898	452.77655	-429.41595	1302.42029	422.39679	-371.97382	1272.45203	579.10382	-404.01822	1341.43176	674.28595	-346.88116	1400.86084	691.25598	-337.00421	1334.66785	754.11218	-327.30127	1386.70129	-117.32322	-483.47089	1395.33777	-260.24753	-488.87454	1333.38477	-405.86862	-451.30487	1296.09839	-391.69095	-398.62491	1260.48218	-536.28333	-404.69269	1337.80347	-621.16608	-343.74747	1400.17981	-633.32458	-317.47186	1339.11951	-698.48364	-323.42609	1390.59058	241.88037	-410.98093	775.93823	224.22748	-422.23615	604.84253	211.31715	-362.19052	689.96246	232.38274	-417.51172	687.87109	213.13383	-432.37408	457.11047	89.77543	-468.33551	435.23282	196.85817	-415.57419	348.38626	202.06378	-431.05447	176.21884	241.21719	-468.81308	267.94485	200.78989	-422.45169	261.93243	225.51732	-487.07489	68.65025	145.11008	-470.61246	80.32841	156.62968	-347.60559	34.50384	245.09520	-380.02866	24.57654	184.63214	-289.65988	25.96735	-175.12984	-408.28027	761.09979	-161.97723	-430.58176	590.91394	-148.99886	-364.50775	669.68066	-171.07310	-419.81720	675.39032	-156.76675	-451.92319	451.97052	-27.21327	-473.27618	428.66568	-107.17322	-414.27664	346.81982	-118.26292	-429.90195	177.09404	-171.76826	-443.22290	266.95819	-113.27979	-425.71494	261.22528	-171.06667	-485.14111	69.59160	-91.12630	-468.33585	79.21511	-130.64064	-535.90198	33.40965	-110.99934	-342.58505	29.92969	-193.05063	-376.50476	24.99968	-139.99628	-283.56360	25.07523	186.51085	-535.33295	39.23414	19.09528	-341.61508	1221.37488						 
184	0.915	-41.56901	-341.18445	1589.07556	58.10674	-334.23669	1593.01526	-53.91472	-494.82587	1554.17883	89.92622	-483.27661	1564.75574	15.95122	-517.53137	1425.26733	18.71249	-546.80420	1197.37866	17.85035	-392.10208	1343.25891	86.61079	-570.37256	1281.14111	-96.70094	-343.14154	919.99939	155.69423	-351.42325	939.01904	-25.27918	-524.03333	965.12610	74.16504	-524.70801	964.93616	162.25354	-491.51929	1384.70496	299.24127	-476.59396	1327.74182	452.81494	-429.25412	1302.61951	422.41718	-371.98932	1272.45227	579.13910	-404.03101	1341.43127	674.29321	-346.88156	1400.81494	691.31146	-337.05319	1334.68616	754.14380	-327.29239	1386.69604	-117.32152	-483.44843	1395.31396	-260.36609	-488.93936	1333.43481	-405.67545	-451.24582	1295.93799	-391.68271	-398.59399	1260.48059	-536.30127	-404.69186	1337.78406	-621.08362	-343.67245	1400.12488	-633.28741	-317.51657	1339.08008	-698.48413	-323.43036	1390.58948	241.88640	-410.99255	775.95502	224.18878	-422.24173	604.83075	211.29800	-362.20538	689.94165	232.37924	-417.52963	687.87311	213.16292	-432.49365	457.18762	89.76913	-468.39328	435.21329	196.84065	-415.52853	348.39386	202.00430	-431.00873	176.22237	241.21335	-468.78821	267.95499	200.79007	-422.47672	261.93060	225.55453	-487.02991	68.67885	145.11526	-470.59866	80.33000	156.61803	-347.63602	34.49711	245.09827	-380.06189	24.56528	184.63577	-289.64529	26.01915	-175.12830	-408.34747	761.09650	-161.98178	-430.58353	590.92828	-149.03256	-364.51630	669.69513	-171.05438	-419.85104	675.38654	-156.75897	-451.94934	451.97067	-27.21605	-473.28311	428.66284	-107.18781	-414.30383	346.81992	-118.26806	-429.93478	177.05122	-171.75134	-443.24991	266.96030	-113.28931	-425.72620	261.19617	-171.07944	-485.13293	69.57613	-91.13281	-468.33121	79.21928	-130.67081	-535.88934	33.41322	-110.99473	-342.62292	29.91212	-193.12807	-376.30511	24.90504	-140.00020	-283.55881	25.07542	186.51927	-535.44598	38.91603	19.12955	-341.59360	1221.33130						 
185	0.920	-41.56956	-341.18332	1589.07568	58.12963	-334.24951	1592.98401	-53.91061	-494.82391	1554.17725	90.16907	-483.30170	1564.77600	15.93449	-517.53479	1425.29456	18.70919	-546.80768	1197.37964	17.84316	-392.10028	1343.26660	86.61335	-570.40265	1281.14294	-96.73766	-343.15695	920.01678	155.69426	-351.42313	939.01941	-25.29804	-524.02820	965.12366	74.15822	-524.74414	964.94080	162.18190	-491.52719	1384.49170	299.21799	-476.60287	1327.72168	452.83472	-429.21503	1302.63684	422.43948	-372.01974	1272.44324	579.12134	-404.08121	1341.46326	674.28723	-346.90994	1400.82935	691.30420	-337.06580	1334.68689	754.13556	-327.29611	1386.68774	-117.25954	-483.40567	1395.33630	-260.38330	-488.95767	1333.44824	-405.75424	-451.26941	1295.95642	-391.67612	-398.58511	1260.49976	-536.31250	-404.69907	1337.78613	-621.11987	-343.75916	1400.12085	-633.30157	-317.57483	1339.07312	-698.48254	-323.41608	1390.55969	241.86688	-411.01025	775.92883	224.17114	-422.26700	604.80914	211.28918	-362.20547	689.95496	232.37517	-417.52429	687.89752	213.15363	-432.52744	457.17789	89.74117	-468.35092	435.21841	196.84915	-415.56845	348.41898	201.97510	-430.99817	176.26865	241.19737	-468.79227	267.93915	200.84778	-422.44458	261.96445	225.57433	-487.01971	68.61643	145.08846	-470.62695	80.35632	156.58437	-347.63693	34.50076	245.08289	-379.99539	24.57404	184.60115	-289.66028	26.00699	-175.14803	-408.37381	761.08740	-161.99805	-430.56741	590.92157	-149.02351	-364.54895	669.66559	-171.09225	-419.90225	675.42242	-156.78450	-451.98166	451.97714	-27.21531	-473.28262	428.66400	-107.19883	-414.28580	346.82101	-118.26642	-429.93689	177.03946	-171.77673	-443.23676	266.96255	-113.29164	-425.72827	261.21161	-171.12244	-485.12354	69.48299	-91.14155	-468.31262	79.19170	-130.71913	-535.85956	33.32568	-111.02174	-342.65121	29.93254	-193.11337	-376.26968	24.90221	-140.02573	-283.57144	25.09411	186.50208	-535.34656	39.23075	19.13855	-341.59021	1221.32581						 
186	0.925	-41.56678	-341.17273	1589.07642	58.20074	-334.17151	1592.98865	-53.87386	-494.83661	1554.16895	90.05998	-483.28357	1564.73523	15.96856	-517.54523	1425.30176	18.71056	-546.80652	1197.38000	17.87333	-392.11752	1343.24438	86.61365	-570.37433	1281.14185	-96.75635	-343.16333	919.99487	155.68398	-351.42230	939.00659	-25.31735	-524.04266	965.10156	74.16373	-524.71631	964.91412	162.25519	-491.53253	1384.70703	299.23801	-476.59573	1327.72925	452.83972	-429.26889	1302.63123	422.43375	-372.03748	1272.46143	579.13757	-404.04587	1341.43530	674.30414	-346.92221	1400.83044	691.33826	-337.07193	1334.68518	754.18146	-327.30591	1386.70496	-117.31695	-483.44766	1395.32422	-260.27664	-488.88800	1333.40601	-405.72052	-451.31613	1295.94409	-391.68216	-398.57880	1260.48584	-536.35217	-404.74725	1337.77173	-621.19208	-343.78427	1400.13806	-633.30780	-317.54807	1339.07678	-698.49103	-323.42310	1390.56018	241.86572	-411.01083	775.97015	224.19301	-422.24722	604.81494	211.26491	-362.21094	689.95325	232.37517	-417.52267	687.89899	213.09975	-432.51202	457.20206	89.74848	-468.38898	435.21408	196.83844	-415.52698	348.41409	201.99841	-431.01062	176.21465	241.18378	-468.79892	267.94629	200.77657	-422.47488	261.89722	225.53337	-487.06863	68.64249	145.09358	-470.66492	80.34653	156.59464	-347.63184	34.50179	245.07539	-380.02554	24.56484	184.60785	-289.65427	25.99208	-175.10442	-408.34857	761.12201	-162.04008	-430.61206	590.92670	-149.05241	-364.59885	669.64832	-171.10422	-419.88583	675.41565	-156.81415	-451.97797	452.00040	-27.21495	-473.28186	428.66418	-107.22146	-414.26666	346.80643	-118.26790	-429.89102	177.09483	-171.77502	-443.25537	266.95856	-113.32278	-425.73166	261.18579	-171.07762	-485.17093	69.58590	-91.10861	-468.32999	79.19637	-130.66846	-535.88763	33.41830	-110.99563	-342.63269	29.92526	-193.16901	-376.27576	24.88967	-140.00618	-283.58252	25.07542	186.47731	-535.34662	39.25037	19.14503	-341.59927	1221.37439						 
